<?xml version="1.0" encoding="utf-8"?>
<!-- Generator: Adobe Illustrator 27.7.0, SVG Export Plug-In . SVG Version: 6.00 Build 0)  -->
<svg version="1.1" id="Layer_1" xmlns="http://www.w3.org/2000/svg" xmlns:xlink="http://www.w3.org/1999/xlink" x="0px" y="0px"
	 viewBox="0 0 1200 774" style="enable-background:new 0 0 1200 774;" xml:space="preserve">
<style type="text/css">
	.st0{fill:#754719;}
</style>
<g>
	<path class="st0" d="M607.07,309.79c4.12,3.58,7.42,5.02,10.06,5.02c10.56,0,10.55-22.94,10.55-22.94
		c-1.84-2.01-5.33-8.36-14.33-15.84c35.55-56.42,78.47-136.24,81.24-196.56c-36-21.06-78.87-23.9-78.87-23.9
		s23.26,91.15-35.51,202.37c-23.03-8.4-57.38-15.02-109.04-15.02c-8.45,0-17.37,0.18-26.77,0.55
		c-156.8,6.27-214.64,73.49-214.64,73.49c-8.68,13.02-6.15,17.27,0.24,17.27c5.49,0,13.82-3.13,20.37-6.51
		c45.17-23.39,115.8-57.22,203.31-57.22c32.24,0,82.58-1.85,112.18,12.31c-13.57,21.62-30.32,43.76-51.11,65.97l-0.6,0.82
		c-25.81-3.21-99.89-4.14-99.89-4.14l0,0c-18.05,0.14-37.52,8.18-52.91,23.58c-19.38,19.38-27.05,45.19-22.02,66.54
		c-31.76-56.66-65.36-97.92-65.36-97.92s-20.31,23.82-20.31,29.8c0,1.01,9.28,25.08,7.79,34.34
		c-18.5,51.08-58.01,117.44-120.35,100.49c-92.31-25.09,24.34-367.14,188.51-395.81c-323.72,0-364.78,690.3-48.9,356.52
		c3.55-3.75,5.28-8.96,4.7-14.1l-1.39-12.28c29.54,68.97,67.27,169.58,47.31,205.67c-9.21,16.65-21.42,24.48-34.39,24.48
		c-30.78,0-65.87-44.06-75.54-118.88c-16.87,110.38,35.09,172.56,87.53,172.56c22.78,0,45.65-11.73,63.03-36.34
		c44.28-62.73,16.55-153.16-20.54-225.93l0.7,0.79c9.65,9.65,22.66,14.34,36.55,14.34c18.18,0,37.85-8.05,53.38-23.58
		c19.78-19.78,27.36-46.25,21.68-67.84c2.8-0.21,5.93-0.3,9.21-0.3c9.42,0,20.17,0.74,28.51,1.48c-1.21,5.6-1.93,11.43-1.93,17.45
		c0,40.2,28.69,72.79,64.08,72.79c35.39,0,64.08-32.59,64.08-72.79c0-34.78-21.49-63.82-50.2-71.03c5.2-7.27,11.86-16.8,19.33-27.96
		C600.28,304.12,603.71,306.86,607.07,309.79z M419.13,426.79c-6.71,6.7-15.2,10.18-23.05,10.18c-6,0-11.62-2.03-15.78-6.19
		c-9.62-9.62-7.83-27.01,3.99-38.83c6.7-6.7,15.2-10.18,23.05-10.18c6,0,11.62,2.03,15.78,6.19
		C432.74,397.58,430.96,414.97,419.13,426.79z M595.63,430.81c-3.08,7.51-11.7,11.67-22.05,11.67c-5.42,0-11.31-1.14-17.13-3.52
		c-16.94-6.95-26.87-21.86-22.18-33.31c3.08-7.52,11.71-11.67,22.06-11.67c5.42,0,11.3,1.14,17.13,3.52
		C590.39,404.45,600.32,419.36,595.63,430.81z"/>
	<path class="st0" d="M733.76,487.11c-9.26,0-20.29,5.49-28.88,15.31c-12.82,14.65-15.35,33.4-5.67,41.87
		c3.19,2.79,7.32,4.12,11.87,4.12c9.26,0,20.29-5.49,28.88-15.31c12.82-14.66,15.35-33.4,5.67-41.87
		C742.43,488.44,738.31,487.11,733.76,487.11z"/>
	<path class="st0" d="M943.66,388.9c9.26,0,20.28-5.49,28.88-15.31c12.82-14.66,15.35-33.4,5.67-41.87
		c-3.19-2.79-7.32-4.12-11.87-4.12c-9.26,0-20.29,5.49-28.88,15.31c-12.82,14.65-15.35,33.4-5.67,41.87
		C934.98,387.57,939.11,388.9,943.66,388.9z"/>
	<path class="st0" d="M1076.41,509.4c-7.35-9.49-24.25-28.53-38.4-55.94c-5.17-13.83-10.29-22.93-10.29-22.93
		s-1.79,10.17-3.36,24.37c-4.56,21.14-15.29,50.44-40.31,64.48c-18.53-10.98-32.21-98.41-32.21-98.41S916,510,787.54,582.89
		c12.34,19.02,25.12,20.35,28.45,20.35c0.54,0,0.83-0.03,0.83-0.03s83.64-55.56,99.77-77.07l2.99,62.13
		c0,0,74.31-15.71,112.48-47.85l0.44,0.65l4.41-5.14c3.8-3.68,7.27-7.5,9.93-11.59c0,0,28.08,18.52,38.24,51.38
		c10.16,32.86-7.17,49.59-13.74,57.36c-2.44,2.88-8.43,3.79-14.98,3.79c-11.1,0-23.85-2.6-23.85-2.6
		c1.32,1.76,21.36,32.89,51.58,32.89c10.89,0,23.11-4.04,36.25-14.97C1169.92,610.97,1085.67,521.35,1076.41,509.4z"/>
</g>
</svg>
